<svg width="30" height="30" viewBox="0 0 30 30" fill="none" xmlns="http://www.w3.org/2000/svg">
<path fill-rule="evenodd" clip-rule="evenodd" d="M15 0C6.75 0 0 6.75 0 15C0 23.25 6.75 30 15 30C23.25 30 30 23.25 30 15C30 6.75 23.25 0 15 0ZM15 26.25C8.8125 26.25 3.75 21.1875 3.75 15C3.75 8.8125 8.8125 3.75 15 3.75C21.1875 3.75 26.25 8.8125 26.25 15C26.25 21.1875 21.1875 26.25 15 26.25ZM19.3125 9.9375L13.125 16.125L10.6875 13.6875C9.9375 12.9375 8.8125 12.9375 8.0625 13.6875C7.3125 14.4375 7.3125 15.5625 8.0625 16.3125L11.8125 20.0625C12.1875 20.4375 12.5625 20.625 13.125 20.625C13.6875 20.625 14.0625 20.4375 14.4375 20.0625L21.9375 12.5625C22.6875 11.8125 22.6875 10.6875 21.9375 9.9375C21.1875 9.1875 20.0625 9.1875 19.3125 9.9375Z" fill="url(#paint0_linear)"/>
<defs>
<linearGradient id="paint0_linear" x1="30" y1="14.7619" x2="-0.332279" y2="14.7619" gradientUnits="userSpaceOnUse">
<stop stop-color="#5CDE7A"/>
<stop offset="1" stop-color="#5CADE2"/>
</linearGradient>
</defs>
</svg>
